<svg xmlns="http://www.w3.org/2000/svg" width="400" height="225" viewBox="0 0 400 225">
  <!-- Background -->
  <rect width="400" height="225" fill="#FFF3E0" />
  
  <!-- Sky -->
  <rect width="400" height="75" fill="#FFE0B2" />
  
  <!-- Palace structure -->
  <rect x="50" y="75" width="300" height="125" fill="#FFCCBC" />
  
  <!-- Main entrance -->
  <rect x="175" y="125" width="50" height="75" fill="#5D4037" />
  <path d="M175,125 Q200,100 225,125" fill="#5D4037" />
  
  <!-- Windows -->
  <g fill="#8D6E63">
    <rect x="75" y="100" width="25" height="40" rx="12.5" />
    <rect x="125" y="100" width="25" height="40" rx="12.5" />
    <rect x="250" y="100" width="25" height="40" rx="12.5" />
    <rect x="300" y="100" width="25" height="40" rx="12.5" />
  </g>
  
  <!-- Decorative patterns -->
  <g fill="none" stroke="#D84315" stroke-width="2">
    <rect x="70" y="95" width="35" height="50" rx="15" />
    <rect x="120" y="95" width="35" height="50" rx="15" />
    <rect x="245" y="95" width="35" height="50" rx="15" />
    <rect x="295" y="95" width="35" height="50" rx="15" />
    <rect x="170" y="120" width="60" height="85" />
    <path d="M170,120 Q200,90 230,120" />
  </g>
  
  <!-- Decorative tiles -->
  <g fill="#00796B" opacity="0.7">
    <rect x="60" y="160" width="10" height="10" />
    <rect x="80" y="160" width="10" height="10" />
    <rect x="100" y="160" width="10" height="10" />
    <rect x="120" y="160" width="10" height="10" />
    <rect x="140" y="160" width="10" height="10" />
    <rect x="240" y="160" width="10" height="10" />
    <rect x="260" y="160" width="10" height="10" />
    <rect x="280" y="160" width="10" height="10" />
    <rect x="300" y="160" width="10" height="10" />
    <rect x="320" y="160" width="10" height="10" />
    
    <rect x="60" y="180" width="10" height="10" />
    <rect x="80" y="180" width="10" height="10" />
    <rect x="100" y="180" width="10" height="10" />
    <rect x="120" y="180" width="10" height="10" />
    <rect x="140" y="180" width="10" height="10" />
    <rect x="240" y="180" width="10" height="10" />
    <rect x="260" y="180" width="10" height="10" />
    <rect x="280" y="180" width="10" height="10" />
    <rect x="300" y="180" width="10" height="10" />
    <rect x="320" y="180" width="10" height="10" />
  </g>
  
  <!-- Garden elements -->
  <rect x="150" y="75" width="100" height="20" fill="#81C784" />
  <circle cx="175" cy="85" r="5" fill="#4CAF50" />
  <circle cx="200" cy="85" r="5" fill="#4CAF50" />
  <circle cx="225" cy="85" r="5" fill="#4CAF50" />
  
  <!-- Text -->
  <text x="200" y="215" font-family="Arial, sans-serif" font-size="16" font-weight="bold" text-anchor="middle" fill="#BF360C">Bahia Palace, Marrakech</text>
</svg> 